<svg width="134" height="126" viewBox="0 0 134 126" fill="none" xmlns="http://www.w3.org/2000/svg">
<g filter="url(#filter0_di_6_22)">
<mask id="path-1-outside-1_6_22" maskUnits="userSpaceOnUse" x="12" y="18" width="110" height="93" fill="black">
<rect fill="white" x="12" y="18" width="110" height="93"/>
<path d="M28.0625 109H13.5625C13.2292 109 13.0625 108.792 13.0625 108.375L13.3125 20.4375C13.3125 20.1042 13.4792 19.9375 13.8125 19.9375H39.6875C44.3125 19.9375 48.5625 21.0625 52.4375 23.3125C56.3125 25.5625 59.3958 28.5833 61.6875 32.375C64.0208 36.1667 65.1875 40.4583 65.1875 45.25C65.1875 48.375 64.7083 51.2083 63.75 53.75C62.7917 56.2917 61.6667 58.4375 60.375 60.1875C59.125 61.9375 57.9792 63.2292 56.9375 64.0625C61.5625 69.1875 63.875 75.2083 63.875 82.125L64 108.375C64 108.792 63.7917 109 63.375 109H48.875C48.5417 109 48.375 108.875 48.375 108.625V82.125C48.375 79.0417 47.2917 76.375 45.125 74.125C42.9583 71.875 40.2917 70.75 37.125 70.75H28.6875L28.5625 108.375C28.5625 108.792 28.3958 109 28.0625 109ZM39.6875 35.25H28.6875V55.375H39.6875C42.3125 55.375 44.6458 54.3958 46.6875 52.4375C48.7708 50.4792 49.8125 48.0833 49.8125 45.25C49.8125 42.5417 48.8125 40.2083 46.8125 38.25C44.8125 36.25 42.4375 35.25 39.6875 35.25ZM95.75 110.25C91.125 110.25 86.8958 109.083 83.0625 106.75C79.2708 104.417 76.25 101.292 74 97.375C71.7917 93.4167 70.6875 89.0208 70.6875 84.1875L70.8125 44.25C70.8125 39.5 71.8958 35.2083 74.0625 31.375C76.2292 27.5 79.2083 24.3958 83 22.0625C86.8333 19.6875 91.0833 18.5 95.75 18.5C100.5 18.5 104.729 19.6458 108.438 21.9375C112.188 24.2292 115.167 27.3333 117.375 31.25C119.625 35.125 120.75 39.4583 120.75 44.25V50.125C120.75 50.4583 120.583 50.625 120.25 50.625H105.875C105.542 50.625 105.375 50.4583 105.375 50.125V44.25C105.375 41.4167 104.458 38.9792 102.625 36.9375C100.792 34.8958 98.5 33.875 95.75 33.875C92.7083 33.875 90.375 34.9167 88.75 37C87.125 39.0833 86.3125 41.5 86.3125 44.25V84.1875C86.3125 87.3125 87.2292 89.875 89.0625 91.875C90.8958 93.8333 93.125 94.8125 95.75 94.8125C98.5 94.8125 100.792 93.7292 102.625 91.5625C104.458 89.3542 105.375 86.8958 105.375 84.1875V78.25C105.375 77.9167 105.542 77.75 105.875 77.75H120.375C120.708 77.75 120.875 77.9167 120.875 78.25V84.1875C120.875 88.9792 119.75 93.3542 117.5 97.3125C115.208 101.229 112.188 104.375 108.438 106.75C104.688 109.083 100.458 110.25 95.75 110.25Z"/>
</mask>
<path d="M28.0625 109H13.5625C13.2292 109 13.0625 108.792 13.0625 108.375L13.3125 20.4375C13.3125 20.1042 13.4792 19.9375 13.8125 19.9375H39.6875C44.3125 19.9375 48.5625 21.0625 52.4375 23.3125C56.3125 25.5625 59.3958 28.5833 61.6875 32.375C64.0208 36.1667 65.1875 40.4583 65.1875 45.25C65.1875 48.375 64.7083 51.2083 63.75 53.75C62.7917 56.2917 61.6667 58.4375 60.375 60.1875C59.125 61.9375 57.9792 63.2292 56.9375 64.0625C61.5625 69.1875 63.875 75.2083 63.875 82.125L64 108.375C64 108.792 63.7917 109 63.375 109H48.875C48.5417 109 48.375 108.875 48.375 108.625V82.125C48.375 79.0417 47.2917 76.375 45.125 74.125C42.9583 71.875 40.2917 70.75 37.125 70.75H28.6875L28.5625 108.375C28.5625 108.792 28.3958 109 28.0625 109ZM39.6875 35.25H28.6875V55.375H39.6875C42.3125 55.375 44.6458 54.3958 46.6875 52.4375C48.7708 50.4792 49.8125 48.0833 49.8125 45.25C49.8125 42.5417 48.8125 40.2083 46.8125 38.25C44.8125 36.25 42.4375 35.25 39.6875 35.25ZM95.75 110.25C91.125 110.25 86.8958 109.083 83.0625 106.75C79.2708 104.417 76.25 101.292 74 97.375C71.7917 93.4167 70.6875 89.0208 70.6875 84.1875L70.8125 44.25C70.8125 39.5 71.8958 35.2083 74.0625 31.375C76.2292 27.5 79.2083 24.3958 83 22.0625C86.8333 19.6875 91.0833 18.5 95.75 18.5C100.5 18.5 104.729 19.6458 108.438 21.9375C112.188 24.2292 115.167 27.3333 117.375 31.25C119.625 35.125 120.75 39.4583 120.75 44.25V50.125C120.75 50.4583 120.583 50.625 120.25 50.625H105.875C105.542 50.625 105.375 50.4583 105.375 50.125V44.25C105.375 41.4167 104.458 38.9792 102.625 36.9375C100.792 34.8958 98.5 33.875 95.75 33.875C92.7083 33.875 90.375 34.9167 88.75 37C87.125 39.0833 86.3125 41.5 86.3125 44.25V84.1875C86.3125 87.3125 87.2292 89.875 89.0625 91.875C90.8958 93.8333 93.125 94.8125 95.75 94.8125C98.5 94.8125 100.792 93.7292 102.625 91.5625C104.458 89.3542 105.375 86.8958 105.375 84.1875V78.25C105.375 77.9167 105.542 77.75 105.875 77.75H120.375C120.708 77.75 120.875 77.9167 120.875 78.25V84.1875C120.875 88.9792 119.75 93.3542 117.5 97.3125C115.208 101.229 112.188 104.375 108.438 106.75C104.688 109.083 100.458 110.25 95.75 110.25Z" fill="url(#paint0_linear_6_22)"/>
<path d="M13.0625 108.375L12.5625 108.374V108.375H13.0625ZM13.3125 20.4375L13.8125 20.4389V20.4375H13.3125ZM61.6875 32.375L61.2596 32.6336L61.2617 32.637L61.6875 32.375ZM60.375 60.1875L59.9727 59.8905L59.9681 59.8969L60.375 60.1875ZM56.9375 64.0625L56.6252 63.6721L56.2108 64.0035L56.5663 64.3975L56.9375 64.0625ZM63.875 82.125L63.375 82.125L63.375 82.1274L63.875 82.125ZM64 108.375L64.5 108.375L64.5 108.373L64 108.375ZM28.6875 70.75V70.25H28.1892L28.1875 70.7483L28.6875 70.75ZM28.5625 108.375L28.0625 108.373V108.375H28.5625ZM28.6875 35.25V34.75H28.1875V35.25H28.6875ZM28.6875 55.375H28.1875V55.875H28.6875V55.375ZM46.6875 52.4375L46.345 52.0732L46.3414 52.0767L46.6875 52.4375ZM46.8125 38.25L46.4589 38.6036L46.4627 38.6073L46.8125 38.25ZM28.0625 108.5H13.5625V109.5H28.0625V108.5ZM13.5625 108.5C13.5304 108.5 13.5253 108.495 13.5361 108.499C13.5499 108.505 13.5663 108.517 13.5779 108.531C13.5877 108.544 13.5836 108.545 13.5769 108.52C13.5699 108.494 13.5625 108.447 13.5625 108.375H12.5625C12.5625 108.637 12.6127 108.926 12.7971 109.156C12.9985 109.408 13.2855 109.5 13.5625 109.5V108.5ZM13.5625 108.376L13.8125 20.4389L12.8125 20.4361L12.5625 108.374L13.5625 108.376ZM13.8125 20.4375C13.8125 20.4165 13.8138 20.4013 13.8153 20.391C13.8167 20.3808 13.8182 20.3766 13.8181 20.3769C13.8179 20.3773 13.8162 20.3823 13.8116 20.3901C13.8068 20.398 13.8 20.4071 13.7911 20.4161C13.7821 20.425 13.773 20.4318 13.7651 20.4366C13.7573 20.4412 13.7523 20.4429 13.7519 20.4431C13.7516 20.4432 13.7558 20.4417 13.766 20.4403C13.7763 20.4388 13.7915 20.4375 13.8125 20.4375V19.4375C13.5688 19.4375 13.2941 19.4988 13.0839 19.7089C12.8738 19.9191 12.8125 20.1938 12.8125 20.4375H13.8125ZM13.8125 20.4375H39.6875V19.4375H13.8125V20.4375ZM39.6875 20.4375C44.2273 20.4375 48.3902 21.5406 52.1864 23.7449L52.6886 22.8801C48.7348 20.5844 44.3977 19.4375 39.6875 19.4375V20.4375ZM52.1864 23.7449C55.9897 25.9532 59.0119 28.9147 61.2596 32.6336L62.1154 32.1164C59.7798 28.252 56.6353 25.1718 52.6886 22.8801L52.1864 23.7449ZM61.2617 32.637C63.5428 36.3439 64.6875 40.5435 64.6875 45.25H65.6875C65.6875 40.3731 64.4989 35.9894 62.1133 32.113L61.2617 32.637ZM64.6875 45.25C64.6875 48.3237 64.2163 51.0961 63.2822 53.5736L64.2178 53.9264C65.2004 51.3206 65.6875 48.4263 65.6875 45.25H64.6875ZM63.2822 53.5736C62.3362 56.0825 61.2313 58.1854 59.9727 59.8906L60.7773 60.4844C62.102 58.6896 63.2471 56.5009 64.2178 53.9264L63.2822 53.5736ZM59.9681 59.8969C58.7307 61.6293 57.6158 62.8796 56.6252 63.6721L57.2498 64.4529C58.3425 63.5788 59.5193 62.2457 60.7819 60.4781L59.9681 59.8969ZM56.5663 64.3975C61.1082 69.4304 63.375 75.3318 63.375 82.125H64.375C64.375 75.0848 62.0168 68.9446 57.3087 63.7275L56.5663 64.3975ZM63.375 82.1274L63.5 108.377L64.5 108.373L64.375 82.1226L63.375 82.1274ZM63.5 108.375C63.5 108.506 63.4675 108.513 63.4902 108.49C63.5129 108.468 63.5063 108.5 63.375 108.5V109.5C63.6604 109.5 63.9663 109.428 64.1973 109.197C64.4283 108.966 64.5 108.66 64.5 108.375H63.5ZM63.375 108.5H48.875V109.5H63.375V108.5ZM48.875 108.5C48.8213 108.5 48.7907 108.495 48.7775 108.491C48.7648 108.488 48.7773 108.489 48.8 108.506C48.8255 108.525 48.8488 108.554 48.8632 108.586C48.8762 108.615 48.875 108.632 48.875 108.625H47.875C47.875 108.872 47.9649 109.13 48.2 109.306C48.408 109.462 48.6603 109.5 48.875 109.5V108.5ZM48.875 108.625V82.125H47.875V108.625H48.875ZM48.875 82.125C48.875 78.9104 47.7402 76.12 45.4852 73.7782L44.7648 74.4718C46.8431 76.63 47.875 79.1729 47.875 82.125H48.875ZM45.4852 73.7782C43.2228 71.4288 40.4254 70.25 37.125 70.25V71.25C40.1579 71.25 42.6939 72.3212 44.7648 74.4718L45.4852 73.7782ZM37.125 70.25H28.6875V71.25H37.125V70.25ZM28.1875 70.7483L28.0625 108.373L29.0625 108.377L29.1875 70.7517L28.1875 70.7483ZM28.0625 108.375C28.0625 108.447 28.0551 108.494 28.0481 108.52C28.0414 108.545 28.0373 108.544 28.0471 108.531C28.0587 108.517 28.0751 108.505 28.0889 108.499C28.0997 108.495 28.0946 108.5 28.0625 108.5V109.5C28.3395 109.5 28.6265 109.408 28.8279 109.156C29.0123 108.926 29.0625 108.637 29.0625 108.375H28.0625ZM39.6875 34.75H28.6875V35.75H39.6875V34.75ZM28.1875 35.25V55.375H29.1875V35.25H28.1875ZM28.6875 55.875H39.6875V54.875H28.6875V55.875ZM39.6875 55.875C42.4521 55.875 44.9068 54.8384 47.0336 52.7983L46.3414 52.0767C44.3849 53.9533 42.1729 54.875 39.6875 54.875V55.875ZM47.03 52.8018C49.2128 50.75 50.3125 48.2227 50.3125 45.25H49.3125C49.3125 47.9439 48.3289 50.2084 46.345 52.0732L47.03 52.8018ZM50.3125 45.25C50.3125 42.4023 49.2548 39.9416 47.1623 37.8927L46.4627 38.6073C48.3702 40.4751 49.3125 42.6811 49.3125 45.25H50.3125ZM47.1661 37.8964C45.0753 35.8057 42.5743 34.75 39.6875 34.75V35.75C42.3007 35.75 44.5497 36.6943 46.4589 38.6036L47.1661 37.8964ZM83.0625 106.75L82.8004 107.176L82.8025 107.177L83.0625 106.75ZM74 97.375L73.5633 97.6186L73.5664 97.6241L74 97.375ZM70.6875 84.1875L70.1875 84.1859V84.1875H70.6875ZM70.8125 44.25L71.3125 44.2516V44.25H70.8125ZM74.0625 31.375L74.4978 31.621L74.4989 31.619L74.0625 31.375ZM83 22.0625L83.262 22.4883L83.2633 22.4875L83 22.0625ZM108.438 21.9375L108.175 22.3628L108.177 22.3641L108.438 21.9375ZM117.375 31.25L116.939 31.4956L116.943 31.5011L117.375 31.25ZM89.0625 91.875L88.6939 92.2129L88.6975 92.2167L89.0625 91.875ZM102.625 91.5625L103.007 91.8855L103.01 91.8819L102.625 91.5625ZM117.5 97.3125L117.932 97.565L117.935 97.5596L117.5 97.3125ZM108.438 106.75L108.702 107.175L108.705 107.172L108.438 106.75ZM95.75 109.75C91.2138 109.75 87.075 108.607 83.3225 106.323L82.8025 107.177C86.7167 109.56 91.0362 110.75 95.75 110.75V109.75ZM83.3245 106.324C79.605 104.035 76.6426 100.971 74.4336 97.1259L73.5664 97.6241C75.8574 101.612 78.9367 104.798 82.8005 107.176L83.3245 106.324ZM74.4366 97.1314C72.2726 93.2525 71.1875 88.9414 71.1875 84.1875H70.1875C70.1875 89.1003 71.3107 93.5809 73.5634 97.6186L74.4366 97.1314ZM71.1875 84.1891L71.3125 44.2516L70.3125 44.2484L70.1875 84.1859L71.1875 84.1891ZM71.3125 44.25C71.3125 39.5792 72.3769 35.3734 74.4978 31.621L73.6272 31.129C71.4148 35.0432 70.3125 39.4208 70.3125 44.25H71.3125ZM74.4989 31.619C76.6238 27.8187 79.5429 24.7771 83.262 22.4883L82.738 21.6367C78.8738 24.0146 75.8345 27.1813 73.6261 31.131L74.4989 31.619ZM83.2633 22.4875C87.0147 20.1633 91.173 19 95.75 19V18C90.9937 18 86.6519 19.2117 82.7367 21.6375L83.2633 22.4875ZM95.75 19C100.416 19 104.552 20.1243 108.175 22.3628L108.7 21.5122C104.906 19.1673 100.584 18 95.75 18V19ZM108.177 22.3641C111.852 24.6103 114.772 27.6514 116.939 31.4956L117.811 31.0044C115.561 27.0153 112.523 23.848 108.698 21.5109L108.177 22.3641ZM116.943 31.5011C119.145 35.2945 120.25 39.5402 120.25 44.25H121.25C121.25 39.3765 120.105 34.9555 117.807 30.9989L116.943 31.5011ZM120.25 44.25V50.125H121.25V44.25H120.25ZM120.25 50.125C120.25 50.146 120.249 50.1612 120.247 50.1715C120.246 50.1817 120.244 50.1859 120.244 50.1856C120.245 50.1852 120.246 50.1802 120.251 50.1724C120.256 50.1645 120.262 50.1554 120.271 50.1464C120.28 50.1375 120.29 50.1307 120.297 50.1259C120.305 50.1213 120.31 50.1196 120.311 50.1194C120.311 50.1193 120.307 50.1208 120.296 50.1222C120.286 50.1237 120.271 50.125 120.25 50.125V51.125C120.494 51.125 120.768 51.0637 120.979 50.8536C121.189 50.6434 121.25 50.3687 121.25 50.125H120.25ZM120.25 50.125H105.875V51.125H120.25V50.125ZM105.875 50.125C105.854 50.125 105.839 50.1237 105.829 50.1222C105.818 50.1208 105.814 50.1193 105.814 50.1194C105.815 50.1196 105.82 50.1213 105.828 50.1259C105.835 50.1307 105.845 50.1375 105.854 50.1464C105.863 50.1554 105.869 50.1645 105.874 50.1724C105.879 50.1802 105.88 50.1852 105.881 50.1856C105.881 50.1859 105.879 50.1817 105.878 50.1715C105.876 50.1612 105.875 50.146 105.875 50.125H104.875C104.875 50.3687 104.936 50.6434 105.146 50.8536C105.357 51.0637 105.631 51.125 105.875 51.125V50.125ZM105.875 50.125V44.25H104.875V50.125H105.875ZM105.875 44.25C105.875 41.2978 104.916 38.7401 102.997 36.6034L102.253 37.2716C104.001 39.2182 104.875 41.5356 104.875 44.25H105.875ZM102.997 36.6034C101.069 34.4559 98.6416 33.375 95.75 33.375V34.375C98.3584 34.375 100.515 35.3358 102.253 37.2716L102.997 36.6034ZM95.75 33.375C92.5806 33.375 90.0906 34.4683 88.3557 36.6925L89.1443 37.3075C90.6594 35.365 92.836 34.375 95.75 34.375V33.375ZM88.3557 36.6925C86.6593 38.8675 85.8125 41.3935 85.8125 44.25H86.8125C86.8125 41.6065 87.5907 39.2992 89.1443 37.3075L88.3557 36.6925ZM85.8125 44.25V84.1875H86.8125V44.25H85.8125ZM85.8125 84.1875C85.8125 87.4173 86.7633 90.1067 88.6939 92.2129L89.4311 91.5371C87.6951 89.6433 86.8125 87.2077 86.8125 84.1875H85.8125ZM88.6975 92.2167C90.623 94.2735 92.9833 95.3125 95.75 95.3125V94.3125C93.2667 94.3125 91.1687 93.3931 89.4275 91.5333L88.6975 92.2167ZM95.75 95.3125C98.6524 95.3125 101.082 94.1603 103.007 91.8855L102.243 91.2395C100.501 93.2981 98.3476 94.3125 95.75 94.3125V95.3125ZM103.01 91.8819C104.913 89.5896 105.875 87.0198 105.875 84.1875H104.875C104.875 86.7719 104.004 89.1187 102.24 91.2431L103.01 91.8819ZM105.875 84.1875V78.25H104.875V84.1875H105.875ZM105.875 78.25C105.875 78.229 105.876 78.2138 105.878 78.2035C105.879 78.1933 105.881 78.1891 105.881 78.1894C105.88 78.1898 105.879 78.1948 105.874 78.2026C105.869 78.2105 105.863 78.2196 105.854 78.2286C105.845 78.2375 105.835 78.2443 105.828 78.2491C105.82 78.2537 105.815 78.2554 105.814 78.2556C105.814 78.2557 105.818 78.2542 105.829 78.2528C105.839 78.2513 105.854 78.25 105.875 78.25V77.25C105.631 77.25 105.357 77.3113 105.146 77.5214C104.936 77.7316 104.875 78.0063 104.875 78.25H105.875ZM105.875 78.25H120.375V77.25H105.875V78.25ZM120.375 78.25C120.396 78.25 120.411 78.2513 120.421 78.2528C120.432 78.2542 120.436 78.2557 120.436 78.2556C120.435 78.2554 120.43 78.2537 120.422 78.2491C120.415 78.2443 120.405 78.2375 120.396 78.2286C120.387 78.2196 120.381 78.2105 120.376 78.2026C120.371 78.1948 120.37 78.1898 120.369 78.1894C120.369 78.1891 120.371 78.1933 120.372 78.2035C120.374 78.2138 120.375 78.229 120.375 78.25H121.375C121.375 78.0063 121.314 77.7316 121.104 77.5214C120.893 77.3113 120.619 77.25 120.375 77.25V78.25ZM120.375 78.25V84.1875H121.375V78.25H120.375ZM120.375 84.1875C120.375 88.8973 119.27 93.1864 117.065 97.0654L117.935 97.5596C120.23 93.5219 121.375 89.0611 121.375 84.1875H120.375ZM117.068 97.06C114.816 100.909 111.851 103.996 108.17 106.328L108.705 107.172C112.524 104.754 115.6 101.549 117.932 97.565L117.068 97.06ZM108.173 106.325C104.508 108.606 100.371 109.75 95.75 109.75V110.75C100.545 110.75 104.867 109.56 108.702 107.175L108.173 106.325Z" fill="black" mask="url(#path-1-outside-1_6_22)"/>
</g>
<defs>
<filter id="filter0_di_6_22" x="11.8625" y="17.3" width="114.213" height="98.15" filterUnits="userSpaceOnUse" color-interpolation-filters="sRGB">
<feFlood flood-opacity="0" result="BackgroundImageFix"/>
<feColorMatrix in="SourceAlpha" type="matrix" values="0 0 0 0 0 0 0 0 0 0 0 0 0 0 0 0 0 0 127 0" result="hardAlpha"/>
<feOffset dx="2" dy="2"/>
<feGaussianBlur stdDeviation="1.35"/>
<feComposite in2="hardAlpha" operator="out"/>
<feColorMatrix type="matrix" values="0 0 0 0 0 0 0 0 0 0 0 0 0 0 0 0 0 0 0.79 0"/>
<feBlend mode="normal" in2="BackgroundImageFix" result="effect1_dropShadow_6_22"/>
<feBlend mode="normal" in="SourceGraphic" in2="effect1_dropShadow_6_22" result="shape"/>
<feColorMatrix in="SourceAlpha" type="matrix" values="0 0 0 0 0 0 0 0 0 0 0 0 0 0 0 0 0 0 127 0" result="hardAlpha"/>
<feOffset dy="4"/>
<feGaussianBlur stdDeviation="2"/>
<feComposite in2="hardAlpha" operator="arithmetic" k2="-1" k3="1"/>
<feColorMatrix type="matrix" values="0 0 0 0 0 0 0 0 0 0 0 0 0 0 0 0 0 0 0.25 0"/>
<feBlend mode="normal" in2="shape" result="effect2_innerShadow_6_22"/>
</filter>
<linearGradient id="paint0_linear_6_22" x1="67" y1="4" x2="67" y2="122" gradientUnits="userSpaceOnUse">
<stop offset="0.251022" stop-color="#FF0404"/>
<stop offset="0.789046" stop-color="#350303"/>
</linearGradient>
</defs>
</svg>
