<svg width="357" height="267" viewBox="0 0 357 267" fill="none" xmlns="http://www.w3.org/2000/svg">
<g filter="url(#filter0_i_12_25)">
<path d="M29.0625 111H14.5625C14.2292 111 14.0625 110.792 14.0625 110.375L14.3125 22.4375C14.3125 22.1042 14.4792 21.9375 14.8125 21.9375H40.6875C45.3125 21.9375 49.5625 23.0625 53.4375 25.3125C57.3125 27.5625 60.3958 30.5833 62.6875 34.375C65.0208 38.1667 66.1875 42.4583 66.1875 47.25C66.1875 50.375 65.7083 53.2083 64.75 55.75C63.7917 58.2917 62.6667 60.4375 61.375 62.1875C60.125 63.9375 58.9792 65.2292 57.9375 66.0625C62.5625 71.1875 64.875 77.2083 64.875 84.125L65 110.375C65 110.792 64.7917 111 64.375 111H49.875C49.5417 111 49.375 110.875 49.375 110.625V84.125C49.375 81.0417 48.2917 78.375 46.125 76.125C43.9583 73.875 41.2917 72.75 38.125 72.75H29.6875L29.5625 110.375C29.5625 110.792 29.3958 111 29.0625 111ZM40.6875 37.25H29.6875V57.375H40.6875C43.3125 57.375 45.6458 56.3958 47.6875 54.4375C49.7708 52.4792 50.8125 50.0833 50.8125 47.25C50.8125 44.5417 49.8125 42.2083 47.8125 40.25C45.8125 38.25 43.4375 37.25 40.6875 37.25ZM117.688 111H76.3125C75.9792 111 75.8125 110.792 75.8125 110.375L75.9375 22.4375C75.9375 22.1042 76.1042 21.9375 76.4375 21.9375H117.562C117.896 21.9375 118.062 22.1458 118.062 22.5625V36.875C118.062 37.2083 117.896 37.375 117.562 37.375H91.3125V57.375H117.562C117.896 57.375 118.062 57.5417 118.062 57.875L118.188 72.375C118.188 72.7083 118.021 72.875 117.688 72.875H91.3125V95.25H117.688C118.021 95.25 118.188 95.4583 118.188 95.875V110.5C118.188 110.833 118.021 111 117.688 111ZM153.125 110.875L130.188 111C129.771 111 129.562 110.792 129.562 110.375L129.812 22.4375C129.812 22.1042 129.979 21.9375 130.312 21.9375L154.25 21.8125C159 21.6875 163.292 22.7708 167.125 25.0625C171 27.3542 174.083 30.4583 176.375 34.375C178.708 38.25 179.875 42.5417 179.875 47.25V84C179.875 88.9167 178.688 93.4167 176.312 97.5C173.896 101.542 170.688 104.771 166.688 107.188C162.688 109.562 158.167 110.792 153.125 110.875ZM154.25 37.125L145.312 37.25L145.188 95.25H153.125C156.292 95.25 158.958 94.1458 161.125 91.9375C163.292 89.7292 164.375 87.0833 164.375 84V47.125C164.375 44.4167 163.375 42.0625 161.375 40.0625C159.375 38.0208 157 37.0417 154.25 37.125Z" fill="#FF0000"/>
<path d="M37.625 240.25C33 240.25 28.7708 239.083 24.9375 236.75C21.1458 234.417 18.125 231.292 15.875 227.375C13.6667 223.417 12.5625 219.021 12.5625 214.188L12.6875 174.25C12.6875 169.5 13.7708 165.208 15.9375 161.375C18.1042 157.5 21.0833 154.396 24.875 152.062C28.7083 149.688 32.9583 148.5 37.625 148.5C42.375 148.5 46.6042 149.646 50.3125 151.938C54.0625 154.229 57.0417 157.333 59.25 161.25C61.5 165.125 62.625 169.458 62.625 174.25V180.125C62.625 180.458 62.4583 180.625 62.125 180.625H47.75C47.4167 180.625 47.25 180.458 47.25 180.125V174.25C47.25 171.417 46.3333 168.979 44.5 166.938C42.6667 164.896 40.375 163.875 37.625 163.875C34.5833 163.875 32.25 164.917 30.625 167C29 169.083 28.1875 171.5 28.1875 174.25V214.188C28.1875 217.312 29.1042 219.875 30.9375 221.875C32.7708 223.833 35 224.812 37.625 224.812C40.375 224.812 42.6667 223.729 44.5 221.562C46.3333 219.354 47.25 216.896 47.25 214.188V208.25C47.25 207.917 47.4167 207.75 47.75 207.75H62.25C62.5833 207.75 62.75 207.917 62.75 208.25V214.188C62.75 218.979 61.625 223.354 59.375 227.312C57.0833 231.229 54.0625 234.375 50.3125 236.75C46.5625 239.083 42.3333 240.25 37.625 240.25ZM67.75 238.375L83.625 150.438C83.7083 150.104 83.9167 149.938 84.25 149.938H102.812C103.146 149.938 103.354 150.104 103.438 150.438L118.688 238.375C118.729 238.792 118.562 239 118.188 239H104C103.583 239 103.354 238.792 103.312 238.375L101.938 229H84.5L83.125 238.375C83.0833 238.792 82.875 239 82.5 239H68.25C67.9167 239 67.75 238.792 67.75 238.375ZM92.8125 179.375L87.0625 215.312H99.375L94.125 179.375L93.375 174.625L92.8125 179.375ZM141.688 239H127.188C126.854 239 126.688 238.792 126.688 238.375L126.938 150.438C126.938 150.104 127.104 149.938 127.438 149.938H153.312C157.938 149.938 162.188 151.062 166.062 153.312C169.938 155.562 173.021 158.583 175.312 162.375C177.646 166.167 178.812 170.458 178.812 175.25C178.812 178.375 178.333 181.208 177.375 183.75C176.417 186.292 175.292 188.438 174 190.188C172.75 191.938 171.604 193.229 170.562 194.062C175.188 199.188 177.5 205.208 177.5 212.125L177.625 238.375C177.625 238.792 177.417 239 177 239H162.5C162.167 239 162 238.875 162 238.625V212.125C162 209.042 160.917 206.375 158.75 204.125C156.583 201.875 153.917 200.75 150.75 200.75H142.312L142.188 238.375C142.188 238.792 142.021 239 141.688 239ZM153.312 165.25H142.312V185.375H153.312C155.938 185.375 158.271 184.396 160.312 182.438C162.396 180.479 163.438 178.083 163.438 175.25C163.438 172.542 162.438 170.208 160.438 168.25C158.438 166.25 156.062 165.25 153.312 165.25ZM203.438 239H189.062C188.646 239 188.438 238.792 188.438 238.375L188.688 150.438C188.688 150.104 188.854 149.938 189.188 149.938H213.812C221.646 149.938 227.833 152.333 232.375 157.125C236.958 161.875 239.25 168.354 239.25 176.562C239.25 182.562 238.062 187.792 235.688 192.25C233.271 196.667 230.146 200.083 226.312 202.5C222.479 204.917 218.312 206.125 213.812 206.125H204.062V238.375C204.062 238.792 203.854 239 203.438 239ZM213.812 165.125L204.062 165.25V190.625H213.812C216.521 190.625 218.875 189.333 220.875 186.75C222.875 184.125 223.875 180.729 223.875 176.562C223.875 173.229 222.979 170.5 221.188 168.375C219.396 166.208 216.938 165.125 213.812 165.125ZM289.812 239H248.438C248.104 239 247.938 238.792 247.938 238.375L248.062 150.438C248.062 150.104 248.229 149.938 248.562 149.938H289.688C290.021 149.938 290.188 150.146 290.188 150.562V164.875C290.188 165.208 290.021 165.375 289.688 165.375H263.438V185.375H289.688C290.021 185.375 290.188 185.542 290.188 185.875L290.312 200.375C290.312 200.708 290.146 200.875 289.812 200.875H263.438V223.25H289.812C290.146 223.25 290.312 223.458 290.312 223.875V238.5C290.312 238.833 290.146 239 289.812 239ZM329 239H314.562C314.188 239 314 238.792 314 238.375V165.375H297.375C296.958 165.375 296.75 165.167 296.75 164.75L296.875 150.438C296.875 150.104 297.042 149.938 297.375 149.938H346C346.458 149.938 346.688 150.104 346.688 150.438V164.75C346.688 165.167 346.521 165.375 346.188 165.375H329.375L329.5 238.375C329.5 238.792 329.333 239 329 239Z" fill="url(#paint0_linear_12_25)"/>
</g>
<defs>
<filter id="filter0_i_12_25" x="12.5625" y="21.625" width="334.125" height="222.625" filterUnits="userSpaceOnUse" color-interpolation-filters="sRGB">
<feFlood flood-opacity="0" result="BackgroundImageFix"/>
<feBlend mode="normal" in="SourceGraphic" in2="BackgroundImageFix" result="shape"/>
<feColorMatrix in="SourceAlpha" type="matrix" values="0 0 0 0 0 0 0 0 0 0 0 0 0 0 0 0 0 0 127 0" result="hardAlpha"/>
<feOffset dy="4"/>
<feGaussianBlur stdDeviation="2"/>
<feComposite in2="hardAlpha" operator="arithmetic" k2="-1" k3="1"/>
<feColorMatrix type="matrix" values="0 0 0 0 0 0 0 0 0 0 0 0 0 0 0 0 0 0 0.25 0"/>
<feBlend mode="normal" in2="shape" result="effect1_innerShadow_12_25"/>
</filter>
<linearGradient id="paint0_linear_12_25" x1="178.5" y1="6" x2="178.5" y2="262" gradientUnits="userSpaceOnUse">
<stop offset="0.570312" stop-color="#FF0000"/>
<stop offset="0.707031" stop-color="#6C0000"/>
<stop offset="0.886719"/>
</linearGradient>
</defs>
</svg>
